<svg width="1361" height="111" viewBox="0 0 1361 111" fill="none" xmlns="http://www.w3.org/2000/svg">
<g clip-path="url(#clip0_2642_194)">
<path d="M994.616 8.49708C994.441 5.02923 992.398 2.11046 989.451 1.01231C984.52 -0.779408 980.435 -0.230333 977.576 2.60174C973.987 6.12739 971.157 9.47964 968.881 12.803C965.613 17.5424 962.666 22.5419 960.04 27.6569C958.377 30.9514 957.005 34.4192 955.663 37.7715C955.313 38.6385 954.992 39.5054 954.642 40.3435C954.613 38.754 954.642 37.4825 954.788 36.3266C955.255 32.3963 954.963 29.9399 950.966 28.8418C950.966 28.8418 949.915 28.3794 948.515 28.7262C947.61 28.9285 947.143 29.7665 947.143 29.7665C946.531 30.8069 946.56 31.1248 946.18 31.9339C945.305 33.7835 944.897 35.8064 944.459 37.8871C944.138 39.4476 943.73 41.037 943.321 42.5976C942.241 46.8457 941.162 51.2094 941.249 55.8043C941.249 55.9488 941.162 56.2378 941.045 56.4979C940.928 56.8157 940.812 57.1336 940.753 57.4515L940.403 59.2432C939.995 61.1795 939.616 63.1446 939.295 65.0808C938.594 69.5601 937.923 74.0394 937.252 78.5187L936.114 86.0035C936.056 86.3213 935.997 86.4369 935.997 86.4658C933.488 90.5406 936.143 94.0662 937.427 95.7712C938.244 96.8405 939.878 97.1873 941.016 97.1873C941.191 97.1873 941.366 97.1873 941.512 97.1873C943.263 96.985 944.196 94.6153 944.226 94.4997C944.546 93.7194 944.722 92.9102 944.867 92.13C945.013 91.5231 945.13 90.9451 945.334 90.3672C946.647 86.5814 948.077 82.7668 949.507 79.0678C949.653 78.6632 949.915 78.2297 950.207 77.7962C950.849 78.1719 951.491 78.5476 951.958 79.01C952.395 79.4146 952.775 79.9347 953.212 80.4838C953.708 81.1485 954.234 81.8131 954.876 82.42C958.202 85.3966 962.17 87.1305 966.021 88.5754C968.647 89.558 971.361 90.5695 974.279 89.9626C976.234 89.5291 978.334 87.8819 979.064 86.1768C979.589 84.9342 979.122 83.287 977.547 80.8306C975.329 77.3916 971.419 77.5361 969.085 77.6228C964.796 77.7384 962.082 75.4265 959.661 72.8545C958.056 71.1495 956.801 69.6179 957.589 67.8551C958.231 66.4101 959.34 64.3294 961.032 62.74C963.191 60.6882 965.467 58.6942 967.685 56.7579C970.573 54.2438 973.549 51.614 976.321 48.8397C981.398 43.7535 987.146 37.9738 990.647 30.7202L991.377 29.2464C992.661 26.6744 993.974 24.0446 994.411 21.2125C995.024 17.2823 994.82 13.2076 994.616 9.27735L994.557 8.43928L994.616 8.49708ZM986.008 13.67C985.746 14.4213 985.512 15.1727 985.279 15.953C984.608 18.0626 983.995 20.0277 983.061 21.8483C981.281 25.3739 979.297 28.5528 977.138 31.356C975.271 33.7835 973.053 36.0954 970.923 38.3206C970.165 39.1008 969.406 39.91 968.677 40.6903C967.509 41.9329 966.138 43.3489 964.679 44.6205C964.621 44.6494 964.475 44.7072 964.3 44.7361C965.379 41.9907 966.576 39.1297 967.947 36.1821L968.677 34.5926C969.785 32.1651 970.894 29.6798 972.265 27.3968L973.082 26.0386C975.767 21.5304 978.539 16.8488 982.653 13.4388C983.47 12.7741 984.053 12.5429 984.52 12.5429C985.045 12.5429 985.395 12.8608 985.716 13.2076C985.833 13.3521 985.95 13.4966 986.037 13.67H986.008Z" fill="black"/>
<path d="M527.505 11.6752C526.951 11.1839 524.996 9.65227 523.333 9.94126C521.348 10.288 518.927 11.5307 518.606 15.432C518.489 16.8481 518.168 18.2352 517.818 19.7379L517.643 20.5471C517.409 21.5585 517.147 22.57 516.913 23.5815C516.593 24.8241 516.272 26.0956 516.009 27.3383C515.28 30.7483 514.579 34.1873 513.908 37.6262L512.683 43.5216C512.595 43.695 512.537 43.8395 512.478 44.0129C512.041 45.2844 511.574 46.5271 511.078 47.7986C509.969 50.7174 508.831 53.7517 508.131 56.8728C507.051 61.7567 504.659 65.8025 502.237 69.4148C502.062 69.5882 501.303 69.8483 500.953 69.8483C500.778 69.7616 500.428 69.3281 500.34 69.0392C500.019 68.0855 499.99 66.9296 499.99 66.0337C499.99 64.531 499.99 63.0282 499.99 61.5544C499.932 54.5031 499.903 47.8564 502.062 41.2386C503.754 36.1235 501.77 31.6442 496.897 29.5635C494.009 28.3208 492.55 29.6791 491.821 31.0373L490.332 33.7827C489.107 36.0368 487.823 38.3776 486.685 40.7762C485.606 43.0592 484.555 45.4 483.534 47.7119C481.842 51.5265 480.091 55.4568 478.078 59.1558C476.444 62.1613 473.818 64.8199 471.513 67.1896C470.871 67.8543 470.229 68.2011 469.85 68.0855C469.499 67.9988 468.974 67.4208 468.595 66.0915C468.449 65.6291 468.362 65.1378 468.303 64.6466C467.632 60.803 468.478 57.104 469.383 53.2027C469.85 51.1508 470.346 49.0412 470.55 47.0183C470.579 46.9316 470.783 46.7293 470.9 46.5849C471.075 46.3826 471.25 46.2092 471.367 46.0069C474.956 41.0652 474.635 36.7593 470.404 32.3956C469.12 31.0662 467.778 30.4883 466.494 30.6327C465.706 30.7194 464.539 31.1818 463.635 32.7424C461.855 35.7767 460.367 39.0134 459.171 42.3656C458.762 43.5216 458.704 44.7353 458.674 45.8624C458.645 46.8449 458.616 47.7408 458.354 48.4922C456.807 52.8848 456.603 57.7687 457.682 63.4328C457.916 64.6177 458.033 65.8025 458.149 67.0163C458.558 70.8309 458.966 74.7611 462.176 78.1134C465.327 81.4078 472.563 83.1417 476.531 80.4831C480.82 77.5932 484.205 74.0097 486.568 69.8772C487.123 68.9236 487.852 67.9988 488.699 66.9296C488.699 67.0451 488.757 67.1318 488.757 67.2474C489.661 72.0446 491.733 76.2638 494.913 79.7895C496.956 82.0725 500.545 83.5463 503.404 83.5463C504.221 83.5463 504.951 83.4307 505.622 83.1706C512.916 80.3964 516.126 74.0097 518.577 68.23C519.744 65.4557 520.444 62.508 521.115 59.676C521.436 58.3466 521.757 57.0173 522.107 55.6879C522.165 55.4568 522.282 55.2256 522.399 55.0233C522.574 54.7054 522.72 54.3586 522.837 54.0118L523.216 52.8559C523.624 51.6132 524.062 50.3128 524.325 48.9545C525.054 45.2555 525.754 41.5565 526.455 37.8574C526.921 35.401 527.388 32.9157 527.855 30.4305C527.855 30.3149 527.972 30.1126 528.059 29.9392C528.234 29.5635 528.468 29.1011 528.526 28.5231L528.76 26.269C529.11 22.6856 529.489 19.0155 529.664 15.3453C529.723 13.7848 528.351 12.3399 527.534 11.6463L527.505 11.6752Z" fill="black"/>
<path d="M208.096 10.0568C207.046 9.16099 205.587 8.7853 204.128 9.07429C202.873 9.30548 201.852 9.99905 201.298 11.0105C199.897 13.6114 198.146 16.8769 198.205 20.865C198.263 23.437 197.855 26.1534 197.504 28.7543L197.242 30.6038C196.979 32.6268 196.629 34.6497 196.308 36.6437C196.046 38.1753 195.812 39.7069 195.579 41.2386C195.491 41.8165 195.462 42.4234 195.433 43.0303C195.404 43.7817 195.374 44.4752 195.199 45.0821C195.083 45.5445 194.645 46.0936 194.499 46.1514C190.152 47.2206 185.512 48.2032 180.756 49.099C179.852 49.2724 178.918 49.2724 177.897 49.3013C177.051 49.3013 176.205 49.3302 175.388 49.4169C172.995 49.677 172.236 49.4458 172.003 49.2146C171.828 49.0412 171.565 48.3766 171.915 46.1225C172.149 44.6197 172.47 43.1459 172.82 41.6721C173.316 39.5624 173.812 37.3661 173.987 35.112C174.337 30.5749 175.971 26.6158 178.51 21.7319C179.356 20.0847 179.618 17.2526 178.51 15.5765C177.459 13.9582 175.008 10.1724 171.215 12.022C169.231 13.0045 166.868 15.2586 166.167 17.715C165.059 21.703 164.3 25.8067 163.571 29.7947C163.279 31.3263 162.987 32.8868 162.695 34.4185L162.491 35.4877C162.258 36.6437 162.024 37.8285 161.82 39.0134L161.411 41.412C161.003 43.7817 160.594 46.267 160.361 48.7233C160.157 50.9774 160.011 53.2604 159.894 55.5145C159.748 58.2599 159.573 61.0631 159.252 63.8085C158.873 67.0451 158.289 70.3396 157.706 73.5184C157.443 74.9634 157.181 76.4083 156.947 77.8244L157.239 79.356H157.414C157.414 79.7317 157.385 80.1074 157.356 80.4541C157.239 82.4193 157.122 84.4422 157.677 86.3495C158.377 88.777 160.945 90.7421 162.404 91.6668C162.783 91.898 163.571 92.2448 164.679 91.7246C166.372 90.9444 168.181 88.3724 168.443 86.3495L169.26 79.9051C169.931 74.6455 170.602 69.3859 171.361 64.1553C171.419 63.7507 171.915 62.9993 172.032 62.8837C177.576 61.9301 183.266 61.1209 188.751 60.3695L191.406 59.9938C192.165 59.8783 192.544 59.9938 192.632 60.1094C192.719 60.1961 192.807 60.4273 192.748 60.8897C192.427 64.7043 191.99 68.8369 191.435 73.4606C191.26 74.8767 191.027 76.2638 190.794 77.6799C190.531 79.2115 190.298 80.7431 190.093 82.2748C189.714 85.5403 189.276 89.2394 189.16 92.9095C189.072 95.8861 189.335 98.8626 189.626 101.926C189.918 104.845 192.252 106.29 194.616 106.29C194.791 106.29 194.937 106.29 195.112 106.29C196.804 106.145 198.905 104.411 199.401 102.735C200.335 99.614 200.802 96.3195 201.122 93.5164C201.414 91.1178 201.589 88.6903 201.794 86.2628C201.969 84.0954 202.144 81.928 202.377 79.7606C202.581 77.7666 202.902 75.8014 203.194 73.8363C203.457 72.1602 203.69 70.4841 203.894 68.8369C204.099 67.074 204.274 65.2823 204.449 63.5195C204.624 61.6122 204.799 59.7049 205.062 57.8264C205.266 56.1214 205.558 54.4453 205.82 52.7403C206.112 51.0641 206.375 49.3591 206.608 47.683C206.841 45.9202 207.016 44.1573 207.162 42.3945C207.337 40.6606 207.483 38.9267 207.717 37.1928C208.154 33.696 208.738 30.1704 209.351 26.5869L209.555 25.2287C209.759 23.7548 209.963 22.3388 210.489 21.154C212.356 16.7614 211.539 13.0334 208.008 10.0279L208.096 10.0568Z" fill="black"/>
<path d="M665.719 27.9153C664.464 29.0134 663.735 31.412 664.085 33.117L664.464 34.8799C665.135 37.8275 665.398 39.0413 664.697 42.4802C664.318 44.3298 664.231 46.2371 664.143 48.0577C664.085 49.3581 664.026 50.6586 663.88 51.9301C663.647 53.6929 663.297 53.953 663.239 53.9819C663.18 54.0108 662.743 54.1842 660.992 53.4907C660.233 53.2017 659.475 52.9705 658.687 52.7393C657.666 52.4503 656.703 52.1613 655.857 51.7278C652.297 49.9939 648.912 48.2022 645.965 46.4683C645.819 46.2949 645.644 45.6013 645.703 45.2545C646.14 42.2201 646.607 39.1858 647.103 36.1514C647.804 31.8166 648.475 27.4529 649.058 23.0892C649.321 21.0374 649.058 18.6388 648.212 16.009C647.687 14.3618 644.652 13.4948 643.193 13.9283C639.546 14.9975 637.562 18.3787 638.116 22.5401C638.262 23.7539 638.116 25.0254 637.971 26.4125L637.854 27.3951C637.65 29.3313 637.416 31.2675 637.183 33.2037L636.803 36.4404C636.774 36.7005 636.774 36.9606 636.774 37.2496C636.774 37.423 636.774 37.5963 636.774 37.7697C635.315 46.6417 633.857 55.5136 632.398 64.3855C632.339 64.7323 632.223 65.079 632.135 65.4547C631.931 66.1483 631.727 66.9286 631.727 67.7955C631.785 72.1881 631.055 74.9913 630.093 78.5458C629.713 79.9908 629.305 81.5513 628.896 83.3141C628.429 85.4815 628.605 87.7356 628.867 89.6719C629.042 90.9145 630.53 92.8796 632.077 92.9085C632.135 92.9085 632.164 92.9085 632.223 92.9085C633.506 92.9085 635.899 92.5328 636.774 91.0012C637.941 88.9205 638.904 86.4641 639.634 83.6898C639.926 82.5628 640.159 81.8692 640.363 81.2623C640.713 80.2509 641.005 79.3839 641.297 77.4188C641.501 76.0606 641.647 74.7023 641.793 73.3441C641.939 71.9858 642.085 70.6276 642.289 69.2694C642.814 65.7726 643.456 62.3626 644.069 59.1837C644.156 58.7791 644.273 58.6346 644.302 58.6346C644.302 58.6346 644.477 58.6057 644.827 58.7502C646.17 59.2993 647.512 59.9062 648.854 60.4841C651.363 61.5823 653.96 62.7382 656.644 63.6052C660.058 64.7034 660.817 66.2639 659.854 70.3386C659.066 73.662 658.687 77.072 658.308 80.3665C658.132 81.8114 657.987 83.2563 657.753 84.788L657.695 85.1637C657.403 87.8512 658.453 90.7411 661.079 91.059C663.151 91.3191 665.777 89.5563 666.857 87.8223C667.79 86.3485 668.14 84.6435 668.491 82.9962C668.549 82.7651 668.578 82.5339 668.636 82.3027L669.366 82.3894L669.512 80.9444C669.629 79.7018 669.745 78.4591 669.862 77.1876C670.125 74.4133 670.358 71.5524 670.796 68.7781C671.146 66.5818 671.642 64.3566 672.109 62.2181C672.488 60.4552 672.896 58.6924 673.217 56.9296C673.626 54.6755 673.889 52.3925 674.151 50.1673L674.385 48.2311C674.501 47.2774 674.56 46.2949 674.647 45.3412L674.735 44.272C674.881 42.4802 675.056 41.0931 675.202 39.7927C675.464 37.6252 675.698 35.7757 675.698 32.7414C675.698 30.7185 674.56 28.2621 672.926 26.7593C670.125 24.1584 666.886 26.9616 665.835 27.8864L665.719 27.9153Z" fill="black"/>
<path d="M388.765 6.90724C387.161 7.65861 385.352 8.52557 383.98 9.85491C378.174 15.4902 373.826 19.8828 369.829 24.1598C367.553 26.5873 365.482 29.1015 363.264 31.789C362.797 32.367 362.301 32.9739 361.805 33.5519L361.863 32.6271C362.068 28.4657 362.272 24.1598 362.651 19.9406C362.768 18.5245 363.06 17.1374 363.322 15.6636C363.614 14.1319 363.935 12.5714 364.052 10.982C364.314 8.00539 361.397 4.30635 358.975 3.58389C356.028 2.71692 353.519 3.90177 351.885 6.87834C351.155 8.20768 350.659 9.9127 350.397 11.9067C350.105 14.1608 349.901 16.4149 349.667 18.669C349.492 20.5474 349.317 22.4259 349.084 24.2754C348.85 26.2694 348.558 28.2634 348.237 30.2285C348.033 31.6156 347.829 33.0028 347.625 34.3899C347.42 35.9216 347.216 37.4532 347.041 39.0137C346.779 41.0366 346.545 43.0595 346.253 45.0825C346.049 46.5274 345.787 47.9434 345.495 49.3595C345.29 50.3998 345.115 51.4402 344.94 52.4805L343.423 61.5547C342.752 65.6872 342.052 69.8487 341.351 73.9812C341.322 74.2124 341.176 74.5303 341.001 74.8481C340.914 75.0504 340.826 75.2238 340.739 75.4261C338.375 81.0614 339.367 86.1186 343.715 90.3957C345.057 91.725 346.253 92.0718 347.187 92.0718C347.45 92.0718 347.683 92.0429 347.887 91.9851C348.85 91.7828 350.192 91.0603 351.068 88.8062C351.214 88.4305 351.389 88.0549 351.535 87.6792C352.089 86.3787 352.672 85.0205 352.789 83.5178C353.168 77.4779 354.131 72.045 355.736 66.901C356.057 65.8895 356.582 65.3405 356.962 65.2249C357.312 65.1382 357.662 65.3983 357.924 65.6294C360.988 68.4615 364.023 71.6115 366.97 75.0504C368.779 77.16 370.442 79.4719 372.076 81.6971C372.805 82.6797 373.505 83.6911 374.235 84.6737C376.102 87.1879 378.962 87.737 381.296 86.0319C383.513 84.4136 383.834 81.5526 382.055 78.9229L381.821 78.605C378.991 74.4147 376.102 70.1087 372.834 66.1207C370.909 63.751 368.779 61.5258 366.736 59.3873C365.336 57.9135 363.906 56.4396 362.564 54.908C362.389 54.7057 362.214 54.0411 362.214 53.8677C362.914 52.5094 363.906 51.1512 365.336 49.5329L367.845 46.643C370.734 43.3196 373.739 39.9096 376.919 36.7885C383.309 30.5464 389.962 24.5644 396.177 19.0447C400.349 15.3457 399.415 12.0512 398.511 10.404C396.235 6.35816 392.471 4.97102 388.649 6.79164L388.765 6.90724Z" fill="black"/>
<path d="M921.14 26.8184V26.3561C921.17 24.4198 921.257 20.8075 917.231 19.8827C913.846 19.1025 912.183 21.3855 911.103 22.8882C910.812 23.2928 910.491 23.7263 910.17 24.0731L909.878 24.5354C908.973 25.9515 908.098 27.3675 907.223 28.7836C905.297 31.9046 903.313 35.1124 901.212 38.1467L900.745 38.8114C896.835 44.4756 892.78 50.342 888.374 55.7461C885.398 59.3584 881.634 62.3639 878.716 64.5602C877.841 65.2249 876.936 65.4272 876.236 65.1382C875.419 64.7914 874.835 63.8088 874.66 62.5084L874.573 61.9304C874.427 60.8034 874.281 59.763 874.339 58.7515V58.3759C874.573 55.3415 874.806 52.2204 875.39 49.2439C875.652 47.8278 876.236 46.4407 876.848 44.9668C877.082 44.3889 877.345 43.8109 877.549 43.2329C877.753 42.7416 877.957 42.2793 878.191 41.788C878.366 41.3834 878.57 41.0077 878.745 40.6031C880.204 37.1642 881.546 33.0606 880.379 28.668C879.825 26.5873 878.424 25.1712 876.615 24.8244C874.864 24.4776 873.085 25.2868 871.859 26.9051C869.758 29.7083 867.803 32.4537 866.841 35.6037L866.199 37.6844C864.506 43.1462 862.756 48.7815 863.339 54.8791C863.485 56.4974 863.485 58.1447 863.456 59.8786C863.398 64.0689 863.368 68.4326 865.907 72.6518C868.533 77.0155 871.48 78.894 876.061 79.0674C880.554 79.2118 883.968 77.16 886.973 75.3394C893.421 71.4092 898.557 66.6409 902.204 61.1212C903.342 59.4162 904.655 57.8557 906.085 56.2085C906.26 56.0062 906.435 55.8039 906.61 55.6016C907.048 57.3933 906.581 59.3295 906.172 60.5144C905.56 62.2772 905.151 64.0978 904.742 65.8606C904.597 66.5542 904.422 67.2189 904.247 67.9124C904.159 68.317 904.071 68.7216 904.013 69.1551C903.896 69.7909 903.809 70.3688 903.605 70.8312C900.599 77.3912 900.833 84.0957 901.387 90.9447C901.475 92.014 901.679 93.3433 902.554 94.1525C902.817 94.4126 903.079 94.7594 903.313 95.0773C903.955 95.9442 905.093 97.4758 906.872 97.4758C907.485 97.4758 908.185 97.2736 908.973 96.8112C910.52 95.8575 912.212 93.7479 912.3 91.8117C912.679 85.1072 913.175 79.0674 915.188 73.2876C915.334 72.8541 915.334 72.4495 915.334 71.9583L918.806 49.6195C921.257 43.493 921.17 37.1642 921.111 31.0088C921.111 29.6216 921.082 28.2345 921.111 26.8762L921.14 26.8184Z" fill="black"/>
<path d="M328.192 15.1432C326.616 14.1028 324.632 13.8427 323.027 14.4785C321.743 14.9987 320.839 16.0101 320.547 17.3106C319.876 20.2583 319.234 23.2348 318.592 26.2114L317.454 31.5288C317.367 31.9911 317.221 32.4535 317.075 32.9159C316.958 33.2916 316.841 33.6962 316.754 34.1007L316.433 35.3723C315.937 37.3085 315.441 39.2447 315.003 41.1809C314.886 41.7589 314.799 42.3369 314.711 42.9149C314.624 43.5506 314.536 44.1864 314.361 44.7933C314.011 45.9203 313.69 47.0474 313.34 48.1744C312.29 51.7579 311.181 55.4858 309.751 58.9825C308.467 62.1614 306.366 65.0802 304.674 67.3054C304.207 67.9412 303.595 68.0567 303.186 68.0567C302.515 68.1434 301.815 67.71 301.319 67.0742C300.006 65.3981 299.101 63.8953 298.518 62.4504C297.467 59.8495 296.621 57.0752 295.804 54.4165L295.6 53.6941C294.929 51.4978 294.258 49.2726 293.616 47.0474C292.77 44.1286 291.894 41.2098 290.99 38.2911L290.669 37.2507C289.823 34.5053 288.918 31.6733 287.576 29.0724C286.175 26.3848 283.841 24.7087 281.157 24.5064C278.414 24.2752 275.788 25.6334 273.95 28.1476C270.799 32.4824 268.669 37.3085 266.568 41.9612L265.868 43.5506C263.621 48.5212 261.112 54.4454 259.39 60.861C258.048 65.8604 260.09 69.8774 261.899 73.4319C263.183 75.975 266.334 76.9864 269.077 75.7727C270.799 75.0213 271.732 72.4205 271.82 70.9177L271.878 69.9641C272.024 67.1898 272.17 64.56 273.746 62.3059C274.183 61.699 274.271 61.0055 274.358 60.4275C274.358 60.2252 274.417 60.0229 274.475 59.8206L274.825 58.7514C275.321 57.1908 275.817 55.6303 276.43 54.1276C276.868 53.0294 277.364 51.9602 277.831 50.8909C278.56 49.3015 279.289 47.6253 279.902 45.9203C280.515 44.1575 280.661 44.1286 281.478 44.2153C282.061 44.2731 282.12 44.2731 282.236 45.5446L282.324 46.1804C282.441 46.9607 282.499 47.712 282.557 48.4923C282.703 50.0817 282.849 51.729 283.316 53.3184C283.929 55.3991 284.687 57.4798 285.417 59.4738C286.234 61.6701 287.051 63.9531 287.693 66.2361C289.122 71.4668 292.186 76.0906 297.03 80.4543C298.313 81.6102 300.969 82.1882 303.77 82.1882C307.038 82.1882 310.481 81.3791 312.173 79.6451C317.775 73.981 321.422 67.0742 323.64 57.8844C323.786 57.3353 324.019 56.7862 324.223 56.2372C324.398 55.8326 324.573 55.3991 324.719 54.9945L325.04 54.0987C325.42 53.1161 325.77 52.0757 326.003 50.9776C326.762 47.0185 327.52 43.0304 328.25 39.0713L329.475 32.4535C329.475 32.4535 329.563 32.1645 329.65 31.9911C329.738 31.7599 329.825 31.5288 329.913 31.2976L332.043 23.6105V23.4082C331.985 20.5761 331.459 17.3973 328.192 15.2299V15.1432Z" fill="black"/>
<path d="M1108.2 20.0553C1108.53 18.4947 1108.12 16.7608 1107.1 15.4604C1104.24 11.7902 1101.14 10.8655 1096.47 12.2526C1094.4 12.8595 1092.21 13.293 1090.08 13.6976C1089.06 13.8999 1088.04 14.1021 1087.05 14.3333L1085.65 14.6512C1084.8 14.8535 1083.99 15.0558 1083.14 15.2003L1080.92 15.576C1078.18 16.0384 1075.32 16.5296 1072.55 16.7897C1071.97 16.7897 1070.89 16.3562 1069.98 15.6338C1067.24 13.4953 1064.47 13.8421 1062.19 16.5585C1061.05 17.9457 1059.65 18.9571 1058.46 19.3039C1056.53 19.8819 1054.63 20.5755 1054.11 22.2227C1053.64 23.6965 1054.52 25.1993 1055.98 26.991C1056.18 27.2222 1056.36 27.4823 1056.53 27.7712C1057 28.4937 1057.55 29.3029 1058.4 29.823C1059.71 30.6322 1060.06 31.6148 1059.86 33.8978C1059.71 35.4005 1059.62 36.8743 1059.51 38.3771C1059.39 39.8509 1059.3 41.3247 1059.16 42.7986L1059.04 44.1279C1058.81 46.7577 1058.54 49.5031 1058.14 52.1329C1057.35 56.959 1056.5 61.785 1055.63 66.7845L1054.46 73.4023L1055.04 75.3385C1055.42 76.5812 1055.83 77.9105 1056.18 79.2688C1057.67 84.6728 1063.3 88.7476 1068.81 88.7476C1069.43 88.7476 1070.01 88.6898 1070.62 88.6031C1078.41 87.2737 1085.33 83.9215 1091.05 80.8293C1092.62 79.9623 1093.35 77.4193 1093.24 76.0032C1093.03 73.4023 1091.69 70.2813 1086.5 70.1079C1081.68 69.9345 1077.71 71.6684 1073.77 73.3445C1072.81 73.7491 1071.85 74.1537 1070.86 74.5294C1069.46 75.0785 1068.35 75.2229 1067.88 74.9051C1067.5 74.645 1067.24 73.9514 1067.15 72.8822C1067.06 71.7551 1067.21 70.5992 1067.36 69.3854C1067.41 68.8074 1067.47 68.2584 1067.53 67.6804C1067.79 64.3281 1068.93 63.23 1072.37 62.9121C1075.2 62.652 1078.21 62.363 1081.16 61.9006C1082.62 61.6694 1084.05 61.3516 1085.5 61.0626C1087.08 60.7158 1088.66 60.3979 1090.23 60.1667C1091.49 59.9933 1093.24 59.5887 1094.2 58.1727C1095.13 56.7856 1094.81 55.1383 1094.52 53.9824C1093.76 51.1503 1090.14 47.9715 1086.9 48.2315C1081.36 48.7228 1076.75 49.3008 1072.4 50.0522C1071.27 50.2544 1070.77 50.2544 1070.59 50.2544C1070.54 50.2544 1070.54 50.2544 1070.54 50.2544C1070.54 50.2544 1070.36 49.9655 1070.36 48.6072C1070.36 45.0527 1070.3 41.4114 1070.89 37.9436C1072.23 29.7075 1072.32 29.2162 1081.68 27.9157C1082.5 27.8001 1083.34 27.7134 1084.16 27.5978C1085.42 27.4534 1086.7 27.3089 1087.95 27.1066C1092.27 26.413 1095.89 25.8061 1099.54 25.0837L1100.33 24.9392C1102.22 24.5924 1104.15 24.2167 1105.9 23.2919C1107.15 22.5984 1108.03 21.4424 1108.32 20.0553H1108.2Z" fill="black"/>
<path d="M1187.6 30.1991C1190.52 29.2454 1193.55 28.5518 1196.38 27.945C1197.34 27.7427 1198.37 27.6271 1199.36 27.5404C1200.15 27.4537 1200.96 27.367 1201.75 27.2514L1203.88 26.9046C1206.97 26.4133 1209.69 25.9798 1212.95 25.3152C1215.17 24.8817 1217.8 23.4079 1219.37 22.5409C1220.92 21.6739 1222.26 19.7955 1222.7 17.8593C1223.02 16.4144 1222.82 15.085 1222.15 14.1025C1218.94 9.53646 1213.42 11.3571 1210.12 12.4552C1208.29 13.0621 1206.36 13.4378 1204.32 13.8424C1203.47 14.0158 1202.65 14.1603 1201.84 14.3625L1201.31 14.4781C1199.91 14.796 1198.51 15.085 1197.11 15.3162L1194.84 15.6919C1192.09 16.1543 1189.26 16.6167 1186.46 16.8478C1185.99 16.8478 1185.15 16.5878 1183.89 15.6341C1182.46 14.5359 1180.86 14.0736 1179.4 14.3625C1178.06 14.6226 1176.95 15.4607 1176.19 16.79C1175.64 17.7726 1175.43 18.5818 1175.32 19.1308C1175.29 19.3042 1175.26 19.5354 1175.29 19.4776C1175.29 19.4776 1175.14 19.5643 1174.67 19.6221C1172.89 19.8822 1171.29 21.096 1170.5 22.7432C1169.8 24.2459 1169.86 25.8642 1170.65 27.1936C1170.88 27.5982 1170.91 27.7427 1170.97 27.9161C1171.14 28.7252 1171.49 29.1876 1172.43 29.8812C1173.62 30.777 1174.03 31.7596 1173.89 33.5802L1173.68 36.3256C1173.54 38.493 1173.39 40.7471 1173.1 42.9434C1173.04 43.4347 1172.95 44.0993 1172.86 44.9663C1172.46 48.6364 1171.61 56.2946 1169.57 67.4495C1168.87 71.293 1168.95 74.8187 1169.89 78.8934C1171.14 84.3553 1176.28 88.0543 1183.6 88.7768H1183.86L1184.1 88.7479C1185.32 88.43 1186.69 88.3433 1188.15 88.2566C1190.23 88.1121 1192.36 87.9676 1194.16 87.3029C1197.52 86.725 1199.82 86.0603 1203.01 84.7887C1204.35 84.2686 1207.88 82.8525 1207.21 78.6911C1206.51 74.3852 1203.76 74.2985 1200.85 74.2118C1197.46 74.0962 1194.46 74.9343 1191.57 75.7145C1189.5 76.2925 1187.54 76.8127 1185.67 76.9283L1185.24 77.0439C1184.51 77.3329 1183.81 77.304 1183.16 76.8994C1182.08 76.2347 1181.3 74.732 1181.15 73.027C1181.06 71.871 1181.15 70.6862 1181.3 69.4146C1181.36 68.8944 1181.41 68.3743 1181.44 67.8541C1181.82 62.8546 1183.72 57.4506 1186.46 57.1905C1189.9 56.9015 1192.71 56.5547 1195.24 56.1501C1196.62 55.9189 1197.99 55.6299 1199.36 55.3409C1200.9 54.9942 1202.48 54.6763 1204.06 54.4451C1205.46 54.2428 1207.21 53.8671 1208.14 52.5089C1209.04 51.1795 1208.78 49.5612 1208.52 48.4341C1207.82 45.5443 1204.14 42.2209 1200.99 42.5099C1195.91 42.9434 1190.93 43.5792 1186.23 44.3594C1185.26 44.5328 1184.8 44.5328 1184.59 44.5328C1184.51 44.5328 1184.48 44.5328 1184.45 44.5328C1184.45 44.5328 1184.27 44.2727 1184.27 43.1168C1184.19 37.2214 1184.19 37.1058 1186.4 31.644C1186.69 30.9215 1187.31 30.2857 1187.6 30.1991Z" fill="black"/>
<path d="M1262.99 3.17899L1262.41 1.99414L1258.79 3.67027C1257.07 4.45053 1255.35 5.2308 1253.69 6.09776C1245.93 10.1147 1241.55 17.1082 1238.28 23.4081C1237.61 24.7085 1237.11 26.0957 1236.68 27.425C1236.15 28.9567 1235.66 30.4016 1234.9 31.6731C1232.3 36.0079 1232.62 40.4294 1232.91 44.851C1232.97 45.5156 1233.18 47.1917 1234.23 48.2321C1237.44 51.4688 1241.52 53.2894 1245.11 54.6765L1246.48 55.1967C1249.87 56.4682 1253.07 57.6531 1255.5 60.1673C1257.13 61.8723 1257.57 63.5484 1256.75 65.2823C1254.33 70.4263 1250.51 74.9345 1245.4 78.6047C1240.35 82.2459 1235.01 85.6848 1229.85 89.0371C1226.61 91.1178 1223.37 93.2274 1220.19 95.3659C1218.5 96.493 1216.86 98.0824 1215.17 100.163C1214.06 101.521 1212.72 104.411 1216.14 108.226C1217.16 109.382 1218.62 111 1220.54 111C1221.18 111 1221.88 110.827 1222.61 110.422C1225.47 108.833 1228.39 106.925 1231.8 104.469L1233.58 103.169C1239.86 98.6026 1246.33 93.8921 1252.49 88.9793L1253.54 88.1701C1257.33 85.1936 1261.27 82.1014 1263.4 77.3331C1265.15 73.4318 1266.41 70.224 1267.31 67.2186C1269.38 60.3696 1266.73 53.5206 1260.69 50.1683C1256.02 47.5674 1250.92 45.6312 1246.07 43.8684C1244.26 43.2037 1244.09 42.4235 1244.41 41.2964C1245.2 38.3198 1246.19 35.6034 1247.33 33.2337C1248.64 30.575 1250.27 28.1186 1252.11 25.4021C1256.46 18.9866 1261.3 15.5765 1267.31 14.6518C1268.92 14.3917 1270.06 13.7559 1270.64 12.7445C1271.25 11.733 1271.28 10.4037 1270.7 8.84314C1269.56 5.72208 1266.44 3.46798 1263.02 3.17899H1262.99Z" fill="black"/>
<path d="M837.433 24.0147C831.976 21.7317 827.921 23.9858 824.361 25.9509C817.563 29.7077 814.616 36.47 812.369 42.5099C812.136 43.1167 811.902 43.7236 811.669 44.3305C810.793 46.6135 809.86 48.9832 809.451 51.4396C808.984 54.3294 808.868 57.2771 808.722 60.3982C808.663 61.8142 808.605 63.288 808.488 64.8486V64.9931V65.1376C808.605 65.9756 808.693 66.9004 808.78 67.854C809.013 70.3393 809.247 73.1425 810.239 75.7723C812.252 81.1475 815.608 85.3089 820.218 88.141C821.589 88.979 824.857 89.7304 827.775 89.7304C829.642 89.7304 831.364 89.4414 832.385 88.6611C836.032 85.8869 840.146 82.7658 842.364 77.9975C842.801 77.0727 843.268 76.1769 843.735 75.3099C844.435 73.9806 845.165 72.6223 845.748 71.2063L846.449 69.5013C847.762 66.3513 849.133 63.0858 849.95 59.7046C851.146 54.8785 851.671 50.746 851.584 47.0181C851.467 41.5562 850.709 37.4526 849.221 34.1292C847.266 29.7944 843.502 26.5867 837.374 24.0436L837.433 24.0147ZM840.963 41.8741C840.701 43.1745 840.467 44.475 840.234 45.7754C839.854 47.9428 839.504 50.0235 838.921 52.0175C837.579 56.5257 836.149 60.3693 834.515 63.7793C833.085 66.7559 831.159 69.9059 828.621 73.3737C827.687 74.6163 826.199 75.7723 824.594 76.4659C823.573 76.8993 822.523 76.8704 821.735 76.3792C821.006 75.9168 820.568 75.1076 820.539 74.0962C820.276 68.2875 820.334 63.1436 820.714 58.3753C820.86 56.468 822.027 54.3872 823.106 52.5666C823.953 51.1217 824.74 49.6189 825.528 48.0873C827.746 43.7814 829.846 39.7356 833.727 36.9324C834.311 36.5278 835.098 36.2388 835.945 35.9499C836.266 35.8343 836.587 35.7187 836.907 35.6031C838.045 35.8343 839.125 36.5567 839.942 37.6549C840.876 38.9264 841.284 40.487 840.992 41.8452L840.963 41.8741Z" fill="black"/>
<path d="M797.901 14.5062C796.238 14.0149 794.429 14.5929 793.028 16.0089C791.452 17.5984 789.993 19.2745 788.505 20.9506C787.455 22.1066 786.405 23.2914 785.354 24.4474C784.304 25.5744 783.253 26.7304 782.232 27.8574C779.373 31.0074 776.426 34.244 773.245 37.0761C770.97 39.099 767.993 40.515 765.076 41.9022L764.054 42.3935C762.712 43.0292 761.166 43.1448 760.757 42.9136C759.911 42.4224 759.24 41.3242 759.853 39.7059C760.728 37.4518 761.166 34.9954 761.107 32.7991C761.049 30.8918 760.29 28.7822 759.065 27.106C758.365 26.1524 756.877 25.1987 755.389 25.3721C754.28 25.4877 753.405 26.1524 752.879 27.2794L752.733 27.6262C750.924 31.672 748.853 36.238 750.866 41.4109C751.158 42.1912 751.362 43.0003 751.537 43.8095C751.741 44.7343 751.975 45.6879 752.325 46.6127C753.842 50.4851 756.381 54.9933 762.712 55.1667C767.789 55.3112 772.253 53.7796 776.455 50.514C776.222 51.6699 775.871 53.086 775.346 54.3286C774.617 56.0337 773.771 57.7098 772.954 59.3859C772.428 60.4263 771.932 61.4666 771.436 62.507L770.386 64.7033C769.19 67.1597 767.993 69.7028 766.943 72.2747C765.426 76.0027 764.171 79.7884 763.15 82.9673C762.8 84.0943 762.566 85.2214 762.391 86.3195C762.275 86.9842 762.158 87.6778 761.983 88.3424C761.02 92.3305 761.983 95.8561 764.871 99.0928L765.922 100.249L767.293 98.8616C769.219 96.8965 771.203 94.8735 771.582 91.6658C771.67 90.8277 771.932 89.903 772.428 88.6603C773.8 85.1925 775.23 81.7535 776.688 78.3146C778.001 75.1935 779.373 72.1013 780.773 69.0381C781.532 67.4198 782.291 65.8014 783.078 64.1831C783.662 62.9693 784.246 61.7556 784.829 60.5419C785.792 58.519 786.696 56.4671 787.601 54.4153C788.126 53.2016 788.651 51.9878 789.147 50.7741C789.906 48.9535 790.694 47.1328 791.482 45.3411C792.328 43.4338 793.232 41.5554 794.166 39.7059C794.691 38.6077 795.246 37.4807 795.771 36.3825C796.179 35.4867 796.559 34.5908 796.938 33.666C797.726 31.7587 798.484 29.9381 799.564 28.4065C802.073 24.8808 801.635 21.3263 801.052 18.2341C800.673 16.3557 799.505 14.9397 797.901 14.4484V14.5062Z" fill="black"/>
<path d="M1155.64 21.4431C1153.98 21.1542 1152.29 21.7899 1151.12 23.206C1149.43 25.2578 1148.64 27.7142 1147.82 30.1128C1147.36 31.5577 1146.89 32.9448 1146.31 34.1297C1145.87 34.9388 1145.46 35.7191 1145.08 36.4416C1142.8 40.7764 1141.32 43.6085 1137.09 47.0185C1135.25 48.9258 1132.42 49.2148 1129.41 49.5038L1128.51 49.5905C1125.59 49.8795 1122.9 49.4749 1120.54 48.3479C1119.72 47.9722 1118.82 45.0534 1119.4 43.1461C1119.61 42.5103 1119.93 41.73 1120.25 40.8631C1121.04 38.898 1121.85 36.8751 1121.88 35.3723C1122 32.8292 1121.33 30.8063 1119.96 29.5348L1119.55 29.1591C1116.84 26.5871 1114.33 24.9977 1109.1 29.6504L1108.81 29.9105L1108.7 30.2862C1105.87 38.8113 1105.6 45.1401 1107.97 49.0992C1108.4 49.8217 1109.13 51.5556 1109.48 52.4804C1111.93 58.9826 1120.07 60.6009 1126.9 59.9073L1129.32 59.6473C1130.78 59.5028 1131.07 59.445 1134.43 59.2716L1134.72 59.2138C1135.19 59.0982 1135.74 59.0115 1136.33 58.9537C1136.94 58.867 1137.55 58.7803 1138.08 58.6647C1138.02 58.9826 1137.96 59.2716 1137.96 59.5317C1137.96 59.9073 1137.41 61.0055 1137.11 61.5835C1136.85 62.0747 1136.65 62.5371 1136.5 62.9128C1136.12 63.8665 1135.74 64.8201 1135.36 65.8027C1134.63 67.5944 1133.93 69.3861 1133.29 71.2067C1132.85 72.4494 1132.48 73.692 1132.1 74.9636C1131.6 76.6397 1131.13 78.2291 1130.49 79.7897L1130.29 80.3098C1128.42 84.9914 1126.46 89.8464 1126.38 95.2216C1126.38 95.7707 1126.23 96.3486 1126.09 96.9844L1126 97.3312C1125.01 101.637 1126.46 105.249 1130.49 108.399L1132.04 109.613L1133.55 105.683C1134.23 103.949 1134.93 102.186 1135.54 100.423C1135.74 99.8165 1135.89 99.1807 1136.01 98.516C1136.09 98.0826 1136.18 97.6491 1136.3 97.2156C1137.41 93.6611 1138.52 90.1065 1139.68 86.552L1139.77 86.263C1140.73 83.3153 1141.7 80.3676 1142.78 77.4778C1143.36 75.9172 1144 74.3856 1144.61 72.8251C1145.17 71.4668 1145.72 70.1086 1146.25 68.7504C1146.86 67.132 1147.41 65.5137 1147.97 63.8665L1149.66 58.9248C1150.39 56.8152 1151.09 54.6767 1151.85 52.5671C1152.7 50.2263 1153.57 47.9144 1154.45 45.6025L1155.32 43.2617C1155.64 42.3947 1155.96 41.4989 1156.26 40.603C1156.93 38.5801 1157.57 36.7017 1158.56 34.9966C1160.75 31.2109 1160.02 27.5408 1159 24.4486C1158.47 22.8014 1157.19 21.6454 1155.55 21.3564L1155.64 21.4431Z" fill="black"/>
<path d="M1358.23 27.8005C1358.02 27.4248 1357.96 26.8469 1357.91 26.2111C1357.82 25.4019 1357.73 24.5061 1357.32 23.668C1355.25 19.4488 1352.48 13.9291 1349.42 8.58286C1348.34 6.67554 1346.44 5.2306 1345.04 4.36364C1343.64 3.49668 1342.24 3.32329 1341.04 3.90126C1339.76 4.50814 1338.91 5.83748 1338.65 7.687C1338.21 10.9526 1339.73 13.38 1341.07 15.5186C1341.74 16.5878 1342.38 17.6282 1342.76 18.6974C1343.23 19.9979 1343.75 21.2983 1344.31 22.5698C1345.33 25.0262 1346.29 27.3381 1346.79 29.7656C1347.23 31.933 1347.11 34.2449 1347.02 36.7013C1346.96 37.8284 1346.91 38.9265 1346.91 40.0247L1347.02 41.1806C1347.02 41.7008 1347.02 42.1921 1347.08 42.6834C1347.72 47.1049 1346.67 51.2663 1345.56 55.6878C1344.83 58.6066 1344.08 61.612 1343.84 64.6753C1343.84 64.762 1343.73 64.9354 1343.67 65.0799C1343.55 65.34 1343.4 65.5711 1343.32 65.8312L1343 66.7271C1342.5 68.1142 1342 69.5303 1341.57 70.9463C1341.42 71.4376 1341.3 71.9578 1341.22 72.4779C1341.13 72.9981 1341.04 73.5183 1340.84 73.9807C1339.49 77.2751 1338.09 80.5407 1336.66 83.8062L1335.18 87.1874C1333.6 90.8286 1331.94 94.6144 1330.16 98.2267C1327.97 102.648 1327.85 103.804 1331.65 107.301C1332.75 108.312 1334.65 108.746 1336.4 108.746C1336.96 108.746 1337.48 108.717 1337.95 108.63C1339.55 108.37 1340.69 107.705 1341.22 106.723C1343.52 102.446 1345.48 98.5735 1347.17 94.8745C1348.48 92.0424 1349.53 89.0658 1350.61 86.0314C1352.22 81.4943 1353.94 76.6683 1355.48 71.8133C1356.21 69.4725 1356.88 67.1028 1357.53 64.7331C1357.94 63.2881 1358.31 61.8432 1358.72 60.4272C1358.72 60.3694 1358.87 60.1671 1358.96 60.0515C1359.13 59.7914 1359.34 59.5024 1359.45 59.2134C1359.57 58.9822 1359.69 58.751 1359.8 58.5199C1360.24 57.6818 1360.77 56.757 1360.65 55.6589C1360.39 52.6823 1360.56 49.5901 1360.77 46.5558C1361.14 40.4004 1361.52 34.0137 1358.23 27.8872V27.8005Z" fill="black"/>
<path d="M155.544 10.8662C154.086 9.42126 152.306 8.72769 150.584 8.92998C148.892 9.16117 147.287 9.71024 145.741 10.2304C144.807 10.5483 143.873 10.8951 142.91 11.1263C139.73 11.9354 136.52 12.6868 133.311 13.4382L128.701 14.5363C128.117 14.6808 127.563 14.8542 127.008 15.0276C125.637 15.49 124.266 15.9813 122.894 16.4436C119.918 17.5129 116.855 18.5822 113.791 19.3335C109.385 20.4028 105.679 22.2812 102.47 25.1133C98.1224 28.9279 97.5097 35.3723 101.099 39.736C102.091 40.9498 103.52 41.5277 105.038 41.3544C106.672 41.181 108.101 40.1695 108.86 38.6379C109.648 37.0773 110.435 36.0081 111.282 35.3434C112.595 34.3031 114.083 33.4072 115.833 32.3668C116.125 32.1935 116.446 31.9912 116.767 31.7889C117 32.4824 117.205 33.0893 117.146 33.4939L116.825 36.7017C115.658 47.8855 114.462 59.445 112.945 70.7733C112.449 74.5879 112.42 77.8245 113.966 81.2635C114.9 83.3153 116.359 84.3268 118.43 84.3268C118.605 84.3268 118.81 84.3268 119.014 84.3268C122.077 84.0667 122.311 81.5525 122.428 80.2231V79.8764C122.865 75.9461 123.332 72.0159 123.857 68.1146C124.032 66.9008 124.237 65.6871 124.441 64.4733C124.674 63.1151 124.908 61.7569 125.083 60.3697C125.462 57.4509 125.754 54.5322 126.075 51.6134C126.717 45.6025 127.388 39.4181 128.526 33.4361C129.634 27.6852 130.393 25.6912 137.717 25.1422C138.971 25.0555 140.168 24.6798 141.306 24.3619L142.239 24.1018C144.078 23.5816 145.945 23.0326 147.754 22.4257L148.221 22.2812C150.701 21.4431 153.269 20.5762 155.719 19.5069C157.003 18.9578 157.558 17.195 157.674 16.357C157.908 14.5363 157.062 12.4556 155.515 10.8951L155.544 10.8662Z" fill="black"/>
<path d="M632.691 16.8188C633.129 15.2872 632.72 13.6111 631.583 12.2239C628.431 8.38039 625.514 8.78497 621.516 10.7501L620.028 11.2992C616.935 12.0794 613.813 12.8308 610.72 13.5822L605.819 14.767C605.498 14.8537 605.177 14.9693 604.856 15.1138C604.739 15.1716 604.593 15.2294 604.476 15.2872L604.009 15.4317C602.288 15.9519 600.567 16.472 598.845 16.9344C598.495 17.0211 598.145 17.0789 597.765 17.1367C597.153 17.2234 596.452 17.339 595.752 17.5991C594.031 18.2927 591.58 19.0151 589.216 19.7087C586.474 20.5179 583.614 21.3848 581.572 22.2229C579.179 23.2343 575.007 25.4884 574.015 29.332C573.431 31.6439 574.073 34.0136 575.97 36.3833C576.991 37.6548 578.917 38.3195 580.317 38.3195H580.346C580.346 38.3195 583.643 38.2617 584.898 36.7878C585.219 36.4122 585.394 36.181 585.54 35.9787C585.598 35.9209 585.686 35.8631 585.861 35.7186L586.182 35.4585C587.116 34.736 589.041 33.9847 590.879 33.2333C592.163 32.742 593.476 32.2218 594.643 31.6439C594.935 32.453 595.169 33.1177 595.11 33.6379C594.147 43.1456 593.097 52.6243 592.047 62.1031L591.259 69.0966C591.2 69.6457 591.142 70.1948 590.996 70.7149C590.004 74.0672 590.267 77.4194 591.784 80.9162C592.426 82.4189 593.622 84.3551 596.365 84.3551C596.627 84.3551 596.919 84.3551 597.211 84.2973C600.07 83.9217 600.275 81.5809 600.391 80.3382L600.45 79.7313C600.8 76.986 601.208 74.2406 601.588 71.4952C601.85 69.7035 602.113 67.9118 602.346 66.12C602.521 64.7618 602.696 63.4036 602.842 62.0453L603.105 59.9068C603.426 57.2481 603.718 54.5606 603.98 51.9019C604.622 45.8331 605.293 39.5332 606.49 33.4934C607.657 27.5402 608.386 25.6329 615.914 25.1128C617.023 25.0261 618.19 24.8238 619.24 24.4481C621.545 23.6678 623.063 22.8876 624.551 22.1362C625.98 21.3848 627.323 20.6912 629.394 19.9977C631.057 19.4486 632.254 18.2638 632.691 16.761V16.8188Z" fill="black"/>
<path d="M34.955 4.73885C33.6712 4.07418 32.65 3.92969 31.8038 4.24757C29.4113 5.17233 26.902 6.24158 24.947 7.88881C19.9576 12.1658 15.9311 17.3965 12.9841 23.4941C12.313 24.9102 11.5836 26.2973 10.8542 27.6844C9.04513 31.1523 7.17775 34.7357 5.98145 38.5215L5.25201 40.8334C3.64723 45.7461 1.98409 50.8323 2.15916 56.352C2.15916 56.6121 2.07163 56.9589 1.95491 57.3634C1.89656 57.6235 1.80903 57.8836 1.75067 58.1437L1.313 60.1666C0.933691 61.8427 0.583557 63.49 0.291778 65.1661C0.145889 65.9753 0.175067 66.7555 0.204245 67.5069H0L0.0875335 69.0096C0.145889 69.9055 0.175067 70.8013 0.204245 71.6972C0.2626 73.7779 0.350134 75.9164 0.67109 78.0549C0.904513 79.5577 1.313 81.0026 1.69231 82.3897C2.1008 83.8347 2.48012 85.2218 2.68436 86.6089C3.44298 92.3309 5.25201 97.7928 8.22815 103.284C9.19102 105.075 10.7958 106.058 12.4881 106.058C13.1592 106.058 13.8303 105.913 14.5014 105.595C16.1645 104.815 16.894 101.983 16.573 100.451C15.3767 94.5272 13.8886 88.7764 12.634 83.9503C10.825 77.1013 10.7958 69.6743 12.5465 61.2648C13.5385 56.4965 14.8223 51.3525 16.5147 45.515C17.39 42.4517 18.4404 39.1861 20.0452 36.3252C22.1168 32.5683 24.6261 28.7826 27.4855 25.1125L27.894 24.5923C30.4325 21.3267 32.8251 18.2635 36.6474 16.6451C37.902 16.1249 41.6659 14.5355 40.6739 10.5186C40.1487 8.40899 37.0267 5.8081 35.0426 4.79665L34.955 4.73885Z" fill="black"/>
<path d="M557.677 30.5456C556.043 29.6497 554.614 29.4474 553.417 29.9387C552.309 30.3722 551.492 31.3837 551.025 32.8864L550.733 33.8112C548.982 39.3597 547.173 45.1106 546.094 50.9192C545.131 55.9765 544.489 61.1782 543.847 66.2066C543.468 69.1543 543.118 72.0731 542.68 75.0207C542.446 76.5524 542.067 78.084 541.6 79.8179C541.367 80.6849 541.133 81.6096 540.9 82.5633L540.812 82.9968L540.958 83.4014C541.163 83.9793 541.367 84.5862 541.6 85.222C542.184 86.9559 542.826 88.8921 543.847 90.7127C544.489 91.8687 546.035 92.5623 548.545 92.8513C548.603 92.8513 548.691 92.8513 548.749 92.8513C550.324 92.8513 551.521 90.6838 551.696 89.6724C552.513 85.0775 553.242 80.4826 553.943 75.8877L555.752 64.1837C556.393 60.0512 557.035 55.9476 557.677 51.8151C557.677 51.6995 557.794 51.4972 557.882 51.2949C557.998 51.0059 558.115 50.7169 558.202 50.4279C558.669 48.6651 559.136 46.9023 559.574 45.1106L559.691 44.6771C559.836 44.0991 559.953 43.55 560.099 42.9721C560.362 41.7872 560.624 40.6602 561.004 39.5909C562.083 36.4698 560.478 32.0772 557.706 30.5745L557.677 30.5456Z" fill="black"/>
<path d="M237.625 29.853C236.545 29.7374 234.707 30.1708 234.095 31.3846L233.54 32.4538C232.519 34.4189 231.439 36.4419 231.002 38.696C230.039 43.522 229.28 48.4637 228.522 53.232C228.201 55.3127 227.88 57.3645 227.53 59.4452C227.5 59.7053 227.413 59.9654 227.325 60.2255C227.209 60.5723 227.121 60.9191 227.063 61.2948L223.27 83.0844L223.386 83.4312C223.561 83.9225 223.707 84.4715 223.882 85.0495C224.378 86.7256 224.933 88.633 225.896 90.3958C226.829 92.1008 229.543 92.6788 230.856 92.7366C230.856 92.7366 230.914 92.7366 230.943 92.7366C233.015 92.7366 234.065 89.0375 234.065 89.0086C234.736 86.5233 235.32 83.8936 235.816 80.9459C236.283 78.056 236.721 75.1662 237.187 72.2763C237.858 67.9704 238.5 63.6645 239.288 59.3874C240.63 51.9605 242.002 45.3427 243.461 39.2161C243.986 37.0198 243.519 34.5923 242.235 32.7428C241.126 31.1534 239.492 30.1419 237.683 29.9108L237.625 29.853Z" fill="black"/>
</g>
<defs>
<clipPath id="clip0_2642_194">
<rect width="1361" height="111" fill="white"/>
</clipPath>
</defs>
</svg>
